<?xml version="1.0" encoding="utf-8"?>
<!-- Generator: Adobe Illustrator 26.3.1, SVG Export Plug-In . SVG Version: 6.00 Build 0)  -->
<svg version="1.1" id="Layer_1" xmlns="http://www.w3.org/2000/svg" xmlns:xlink="http://www.w3.org/1999/xlink" x="0px" y="0px"
	 viewBox="0 0 216 216" style="enable-background:new 0 0 216 216;" xml:space="preserve">
<style type="text/css">
	.st0{fill:#7A16B5;}
	.st1{fill:#8DC540;}
	.st2{fill:#6D6E70;}
	.st3{fill:#D1D2D3;}
	.st4{fill:#FFFFFF;}
	.st5{fill:#94489A;}
	.st6{fill:#8DC63F;}
	.st7{fill:#B700D9;}
</style>
<g>
	<g>
		<path class="st6" d="M58.52,202.96H17.8c-4.9,0-8.9-4.01-8.9-8.9V99.23c0-4.9,4.01-8.9,8.9-8.9h40.72c4.9,0,8.9,4.01,8.9,8.9
			v94.83C67.42,198.96,63.42,202.96,58.52,202.96z"/>
	</g>
</g>
<g>
	<g>
		<path class="st6" d="M128.64,202.96H87.92c-4.9,0-8.9-4.01-8.9-8.9V27.22c0-4.9,4.01-8.9,8.9-8.9h40.72c4.9,0,8.9,4.01,8.9,8.9
			v166.84C137.54,198.96,133.54,202.96,128.64,202.96z"/>
	</g>
</g>
<g>
	<g>
		<path class="st6" d="M198.2,202.96h-40.72c-4.9,0-8.9-4.01-8.9-8.9V67.43c0-4.9,4.01-8.9,8.9-8.9h40.72c4.9,0,8.9,4.01,8.9,8.9
			v126.63C207.1,198.96,203.1,202.96,198.2,202.96z"/>
	</g>
</g>
</svg>
