<?xml version="1.0" encoding="UTF-8"?><svg id="Layer_1" xmlns="http://www.w3.org/2000/svg" viewBox="0 0 416.66 143.58"><defs><style>.cls-1{fill:#fff;}.cls-2{fill:#8dc63f;}</style></defs><rect class="cls-2" x="0" width="416.66" height="143.58" rx="42.1" ry="42.1"/><g><path class="cls-1" d="M66.09,53.34c3.39-5.93,8.01-10.56,13.87-13.87,5.86-3.31,12.43-4.97,19.71-4.97,8.52,0,15.98,2.18,22.39,6.55,6.41,4.37,10.88,10.41,13.43,18.13h-17.58c-1.75-3.64-4.2-6.37-7.37-8.19-3.17-1.82-6.83-2.73-10.98-2.73-4.44,0-8.39,1.04-11.85,3.11-3.46,2.07-6.15,5.01-8.08,8.79-1.93,3.79-2.89,8.23-2.89,13.32s.96,9.45,2.89,13.27c1.93,3.82,4.62,6.77,8.08,8.85,3.46,2.08,7.41,3.11,11.85,3.11,4.15,0,7.81-.93,10.98-2.79,3.17-1.86,5.62-4.6,7.37-8.25h17.58c-2.55,7.79-7.01,13.85-13.38,18.18-6.37,4.33-13.85,6.5-22.44,6.5-7.28,0-13.85-1.66-19.71-4.97-5.86-3.31-10.48-7.92-13.87-13.81-3.39-5.9-5.08-12.59-5.08-20.09s1.69-14.21,5.08-20.15Z"/><path class="cls-1" d="M161.7,30.89V111.71h-15.29V30.89h15.29Z"/><path class="cls-1" d="M185.73,108.81c-4.66-2.58-8.32-6.24-10.98-10.98-2.66-4.73-3.99-10.19-3.99-16.38s1.37-11.65,4.1-16.38c2.73-4.73,6.46-8.39,11.19-10.98,4.73-2.58,10.01-3.88,15.83-3.88s11.1,1.29,15.84,3.88c4.73,2.59,8.46,6.24,11.19,10.98,2.73,4.73,4.1,10.19,4.1,16.38s-1.4,11.65-4.2,16.38c-2.8,4.73-6.59,8.39-11.36,10.98-4.77,2.58-10.1,3.88-16,3.88s-11.07-1.29-15.73-3.88Zm23.53-11.47c2.44-1.35,4.39-3.37,5.84-6.06,1.46-2.69,2.18-5.97,2.18-9.83,0-5.75-1.51-10.17-4.53-13.27-3.02-3.09-6.72-4.64-11.08-4.64s-8.03,1.55-10.98,4.64c-2.95,3.1-4.42,7.52-4.42,13.27s1.44,10.17,4.31,13.27c2.88,3.1,6.5,4.64,10.87,4.64,2.77,0,5.37-.67,7.81-2.02Z"/><path class="cls-1" d="M251.9,110.02c-3.93-1.78-7.04-4.2-9.34-7.26s-3.55-6.44-3.77-10.16h15.4c.29,2.33,1.44,4.26,3.44,5.79,2,1.53,4.49,2.29,7.48,2.29s5.19-.58,6.83-1.75c1.64-1.16,2.46-2.66,2.46-4.48,0-1.97-1-3.44-3-4.42-2-.98-5.19-2.06-9.56-3.22-4.52-1.09-8.21-2.22-11.08-3.39-2.88-1.16-5.35-2.95-7.43-5.35-2.08-2.4-3.11-5.64-3.11-9.72,0-3.35,.96-6.41,2.89-9.17,1.93-2.77,4.7-4.95,8.3-6.55,3.6-1.6,7.84-2.4,12.72-2.4,7.21,0,12.96,1.8,17.25,5.41,4.3,3.6,6.66,8.46,7.1,14.58h-14.63c-.22-2.4-1.22-4.31-3-5.73-1.78-1.42-4.17-2.13-7.15-2.13-2.77,0-4.9,.51-6.39,1.53-1.49,1.02-2.24,2.44-2.24,4.26,0,2.04,1.02,3.59,3.06,4.64,2.04,1.06,5.2,2.13,9.5,3.22,4.37,1.09,7.97,2.22,10.81,3.39,2.84,1.17,5.3,2.97,7.37,5.41,2.07,2.44,3.15,5.66,3.22,9.67,0,3.49-.97,6.63-2.89,9.39-1.93,2.77-4.7,4.93-8.3,6.5-3.6,1.56-7.81,2.35-12.61,2.35s-9.39-.89-13.32-2.68Z"/><path class="cls-1" d="M355.21,86.04h-44.23c.36,4.37,1.89,7.79,4.59,10.27,2.69,2.48,6.01,3.71,9.94,3.71,5.68,0,9.72-2.44,12.12-7.32h16.49c-1.75,5.83-5.1,10.61-10.05,14.36-4.95,3.75-11.03,5.62-18.24,5.62-5.83,0-11.05-1.29-15.67-3.88-4.62-2.58-8.23-6.24-10.81-10.98-2.59-4.73-3.88-10.19-3.88-16.38s1.27-11.76,3.82-16.49c2.55-4.73,6.12-8.37,10.7-10.92,4.59-2.55,9.86-3.82,15.84-3.82s10.9,1.24,15.45,3.71c4.55,2.48,8.08,5.99,10.59,10.54,2.51,4.55,3.77,9.77,3.77,15.67,0,2.18-.15,4.15-.44,5.9Zm-15.4-10.27c-.07-3.93-1.49-7.08-4.26-9.45-2.77-2.37-6.15-3.55-10.16-3.55-3.79,0-6.97,1.15-9.56,3.44-2.58,2.29-4.17,5.48-4.75,9.56h28.72Z"/></g></svg>