<?xml version="1.0" encoding="UTF-8"?><svg id="Layer_1" xmlns="http://www.w3.org/2000/svg" viewBox="0 0 690.31 143.58"><defs><style>.cls-1{fill:#fff;}.cls-2{fill:#8dc63f;}</style></defs><rect class="cls-2" x="0" width="690.31" height="143.58" rx="50.12" ry="50.12"/><g><path class="cls-1" d="M87.07,97.36h-27.93l-4.62,13.36h-14.77l25.22-70.22h16.38l25.22,70.22h-14.87l-4.62-13.36Zm-3.82-11.25l-10.15-29.33-10.15,29.33h20.29Z"/><path class="cls-1" d="M113.74,67.72c2.24-4.35,5.31-7.7,9.19-10.05,3.88-2.34,8.2-3.52,12.96-3.52,3.62,0,7.07,.79,10.35,2.36,3.28,1.57,5.89,3.67,7.84,6.28v-26.42h14.27V110.72h-14.27v-8.24c-1.74,2.75-4.19,4.96-7.33,6.63-3.15,1.67-6.8,2.51-10.95,2.51-4.69,0-8.98-1.21-12.86-3.62-3.89-2.41-6.95-5.81-9.19-10.2-2.25-4.39-3.37-9.43-3.37-15.12s1.12-10.61,3.37-14.97Zm38.43,6.38c-1.34-2.44-3.15-4.32-5.42-5.63-2.28-1.31-4.72-1.96-7.33-1.96s-5.02,.64-7.23,1.91c-2.21,1.27-4,3.13-5.38,5.58-1.37,2.45-2.06,5.34-2.06,8.69s.69,6.28,2.06,8.79c1.37,2.51,3.18,4.44,5.42,5.78,2.24,1.34,4.64,2.01,7.18,2.01s5.06-.65,7.33-1.96c2.28-1.31,4.08-3.18,5.42-5.63,1.34-2.44,2.01-5.37,2.01-8.79s-.67-6.34-2.01-8.79Z"/><path class="cls-1" d="M179.85,67.72c2.24-4.35,5.31-7.7,9.19-10.05,3.88-2.34,8.2-3.52,12.96-3.52,3.62,0,7.07,.79,10.35,2.36,3.28,1.57,5.89,3.67,7.84,6.28v-26.42h14.27V110.72h-14.27v-8.24c-1.74,2.75-4.19,4.96-7.33,6.63-3.15,1.67-6.8,2.51-10.95,2.51-4.69,0-8.98-1.21-12.86-3.62-3.88-2.41-6.95-5.81-9.19-10.2-2.24-4.39-3.37-9.43-3.37-15.12s1.12-10.61,3.37-14.97Zm38.43,6.38c-1.34-2.44-3.15-4.32-5.42-5.63-2.28-1.31-4.72-1.96-7.33-1.96s-5.02,.64-7.23,1.91c-2.21,1.27-4,3.13-5.37,5.58-1.37,2.45-2.06,5.34-2.06,8.69s.69,6.28,2.06,8.79c1.37,2.51,3.18,4.44,5.42,5.78,2.24,1.34,4.64,2.01,7.18,2.01s5.06-.65,7.33-1.96c2.28-1.31,4.08-3.18,5.42-5.63,1.34-2.44,2.01-5.37,2.01-8.79s-.67-6.34-2.01-8.79Z"/><path class="cls-1" d="M267.85,67.72c2.24-4.35,5.29-7.7,9.14-10.05,3.85-2.34,8.15-3.52,12.91-3.52,4.15,0,7.79,.84,10.9,2.51,3.11,1.67,5.61,3.78,7.48,6.33v-7.94h14.17v55.66h-14.17v-8.14c-1.81,2.61-4.3,4.77-7.48,6.48-3.18,1.71-6.85,2.56-11,2.56-4.69,0-8.96-1.21-12.81-3.62-3.85-2.41-6.9-5.81-9.14-10.2-2.24-4.39-3.37-9.43-3.37-15.12s1.12-10.61,3.37-14.97Zm38.43,6.38c-1.34-2.44-3.15-4.32-5.42-5.63-2.28-1.31-4.72-1.96-7.33-1.96s-5.02,.64-7.23,1.91c-2.21,1.27-4,3.13-5.37,5.58-1.37,2.45-2.06,5.34-2.06,8.69s.69,6.28,2.06,8.79c1.37,2.51,3.18,4.44,5.42,5.78,2.24,1.34,4.64,2.01,7.18,2.01s5.06-.65,7.33-1.96c2.28-1.31,4.08-3.18,5.42-5.63,1.34-2.44,2.01-5.37,2.01-8.79s-.67-6.34-2.01-8.79Z"/><path class="cls-1" d="M399.4,40.6v11.35h-29.23v17.98h22.4v11.15h-22.4v29.64h-14.07V40.6h43.3Z"/><path class="cls-1" d="M428.48,56.77c2.91-1.67,6.24-2.51,10-2.51v14.77h-3.72c-4.42,0-7.75,1.04-10,3.11-2.25,2.08-3.37,5.69-3.37,10.85v27.73h-14.07V55.07h14.07v8.64c1.81-2.95,4.17-5.26,7.08-6.93Z"/><path class="cls-1" d="M446.87,46.07c-1.64-1.57-2.46-3.53-2.46-5.88s.82-4.3,2.46-5.88c1.64-1.57,3.7-2.36,6.18-2.36s4.54,.79,6.18,2.36c1.64,1.57,2.46,3.53,2.46,5.88s-.82,4.3-2.46,5.88c-1.64,1.57-3.7,2.36-6.18,2.36s-4.54-.79-6.18-2.36Zm13.11,8.99v55.66h-14.06V55.07h14.06Z"/><path class="cls-1" d="M523.17,87.11h-40.69c.33,4.02,1.74,7.17,4.22,9.44,2.48,2.28,5.53,3.42,9.14,3.42,5.22,0,8.94-2.24,11.15-6.73h15.17c-1.61,5.36-4.69,9.76-9.24,13.21-4.55,3.45-10.15,5.17-16.78,5.17-5.36,0-10.16-1.19-14.42-3.57-4.25-2.38-7.57-5.74-9.95-10.1-2.38-4.35-3.57-9.38-3.57-15.07s1.17-10.81,3.52-15.17c2.34-4.35,5.62-7.7,9.84-10.05,4.22-2.34,9.07-3.52,14.57-3.52s10.03,1.14,14.21,3.42c4.19,2.28,7.43,5.51,9.75,9.69,2.31,4.19,3.47,8.99,3.47,14.42,0,2.01-.13,3.82-.4,5.43Zm-14.17-9.44c-.07-3.62-1.37-6.51-3.92-8.69-2.55-2.18-5.66-3.27-9.34-3.27-3.48,0-6.41,1.05-8.79,3.16-2.38,2.11-3.83,5.04-4.37,8.79h26.42Z"/><path class="cls-1" d="M578.72,60.54c4.08,4.19,6.13,10.03,6.13,17.53v32.65h-14.06v-30.74c0-4.42-1.11-7.82-3.32-10.2-2.21-2.38-5.22-3.57-9.04-3.57s-6.95,1.19-9.19,3.57c-2.24,2.38-3.37,5.78-3.37,10.2v30.74h-14.06V55.07h14.06v6.93c1.87-2.41,4.27-4.3,7.18-5.68,2.91-1.37,6.11-2.06,9.59-2.06,6.63,0,11.99,2.09,16.07,6.28Z"/><path class="cls-1" d="M595.95,67.72c2.24-4.35,5.31-7.7,9.19-10.05,3.88-2.34,8.2-3.52,12.96-3.52,3.62,0,7.06,.79,10.35,2.36,3.28,1.57,5.89,3.67,7.84,6.28v-26.42h14.26V110.72h-14.26v-8.24c-1.74,2.75-4.19,4.96-7.33,6.63-3.15,1.67-6.8,2.51-10.95,2.51-4.69,0-8.98-1.21-12.86-3.62-3.88-2.41-6.95-5.81-9.19-10.2-2.25-4.39-3.37-9.43-3.37-15.12s1.12-10.61,3.37-14.97Zm38.43,6.38c-1.34-2.44-3.15-4.32-5.42-5.63-2.28-1.31-4.72-1.96-7.33-1.96s-5.02,.64-7.23,1.91c-2.21,1.27-4,3.13-5.37,5.58-1.37,2.45-2.06,5.34-2.06,8.69s.69,6.28,2.06,8.79c1.37,2.51,3.18,4.44,5.42,5.78,2.24,1.34,4.64,2.01,7.18,2.01s5.06-.65,7.33-1.96c2.28-1.31,4.08-3.18,5.42-5.63,1.34-2.44,2.01-5.37,2.01-8.79s-.67-6.34-2.01-8.79Z"/></g></svg>