<?xml version="1.0" encoding="utf-8"?>
<!-- Generator: Adobe Illustrator 26.3.1, SVG Export Plug-In . SVG Version: 6.00 Build 0)  -->
<svg version="1.1" id="Layer_1" xmlns="http://www.w3.org/2000/svg" xmlns:xlink="http://www.w3.org/1999/xlink" x="0px" y="0px"
	 viewBox="0 0 216 216" style="enable-background:new 0 0 216 216;" xml:space="preserve">
<style type="text/css">
	.st0{fill:#7A16B5;}
	.st1{fill:#8DC540;}
	.st2{fill:#6D6E70;}
	.st3{fill:#D1D2D3;}
	.st4{fill:#FFFFFF;}
	.st5{fill:#94489A;}
	.st6{fill:#8DC63F;}
	.st7{fill:#B700D9;}
</style>
<path class="st6" d="M173.94,165.01H42.35c-14.25,0-25.91-11.66-25.91-25.9V67.42c0-14.25,11.66-25.91,25.91-25.91h131.58
	c14.25,0,25.91,11.66,25.91,25.91v71.69C199.84,153.35,188.18,165.01,173.94,165.01z"/>
<g>
	<path class="st4" d="M91.9,94.65H79.04c-2.56-4.71-7.19-7.19-13.1-7.19c-9.99,0-16.93,7.11-16.93,18.21
		c0,11.34,7.03,18.37,17.41,18.37c8.63,0,14.14-4.95,15.82-12.86H63.07v-8.55h30.19v9.75c-2.24,11.34-12.38,21.73-27.24,21.73
		c-16.21,0-28.52-11.74-28.52-28.44c0-16.69,12.3-28.52,28.44-28.52C78.4,77.15,88.31,83.46,91.9,94.65z"/>
	<path class="st4" d="M127.45,134.19c-15.74,0-28.6-11.82-28.6-28.6c0-16.69,12.86-28.52,28.6-28.52c15.9,0,28.52,11.82,28.52,28.52
		C155.97,122.37,143.27,134.19,127.45,134.19z M127.45,124.2c10.07,0,17.01-7.27,17.01-18.61s-6.95-18.45-17.01-18.45
		c-10.14,0-17.09,7.11-17.09,18.45S117.31,124.2,127.45,124.2z"/>
	<path class="st4" d="M172.99,134.19c-4.07,0-6.95-2.88-6.95-6.55c0-3.67,2.88-6.55,6.95-6.55c3.91,0,6.79,2.88,6.79,6.55
		C179.78,131.31,176.9,134.19,172.99,134.19z M166.68,76.91h12.06l-1.28,38.58h-9.43L166.68,76.91z"/>
</g>
</svg>
