<?xml version="1.0" encoding="utf-8"?>
<!-- Generator: Adobe Illustrator 26.3.1, SVG Export Plug-In . SVG Version: 6.00 Build 0)  -->
<svg version="1.1" id="Layer_1" xmlns="http://www.w3.org/2000/svg" xmlns:xlink="http://www.w3.org/1999/xlink" x="0px" y="0px"
	 viewBox="0 0 216 216" style="enable-background:new 0 0 216 216;" xml:space="preserve">
<style type="text/css">
	.st0{fill:#7A16B5;}
	.st1{fill:#8DC540;}
	.st2{fill:#6D6E70;}
	.st3{fill:#D1D2D3;}
	.st4{fill:#FFFFFF;}
	.st5{fill:#94489A;}
	.st6{fill:#8DC63F;}
	.st7{fill:#B700D9;}
</style>
<g>
	<path class="st0" d="M154.42,157.07c0.18,3.74-1.89,7.65-4.91,9c-3.15,1.39-5.51-0.55-5.69-4.3c-0.18-3.74,1.89-7.65,5.03-9.04
		C151.87,151.38,154.23,153.33,154.42,157.07z"/>
	<path class="st0" d="M137.34,128.42c-0.6-9.79,4.27-19.44,13.26-23.42c8.38-3.72,14.54-0.06,15.07,10.92
		c0.54,10.98-5.17,19-13.36,22.64l0.07,6.37l-7.58,3.36l-0.98-13.69l2.76-1.23c6.41-2.85,11.13-6.52,10.71-13.81
		c-0.23-4.72-2.59-6.66-6.22-5.05c-3.76,1.66-5.84,5.5-5.6,10.29L137.34,128.42z"/>
	<path class="st1" d="M68.82,158.7c-0.18-3.79-2.72-7.66-5.94-8.89c-3.36-1.28-5.58,0.78-5.38,4.57c0.2,3.79,2.72,7.66,6.08,8.94
		C66.8,164.55,69.01,162.49,68.82,158.7z M80.88,128.16c-0.58-11.13-7.17-19.87-16.13-23.28c-9.62-3.68-14.84,1.6-14.19,11.62
		l8.7,3.32c-0.24-4.86,1.98-6.84,5.99-5.3c3.89,1.47,6.42,5.36,6.66,10.14c0.45,7.44-4.61,7.04-11.45,4.42l-2.97-1.13l1.06,14.14
		l8.1,3.1l-0.07-6.24C75.34,142.28,81.44,139.27,80.88,128.16z M80.88,128.16c-0.58-11.13-7.17-19.87-16.13-23.28
		c-9.62-3.68-14.84,1.6-14.19,11.62l8.7,3.32c-0.24-4.86,1.98-6.84,5.99-5.3c3.89,1.47,6.42,5.36,6.66,10.14
		c0.45,7.44-4.61,7.04-11.45,4.42l-2.97-1.13l1.06,14.14l8.1,3.1l-0.07-6.24C75.34,142.28,81.44,139.27,80.88,128.16z M62.87,149.8
		c-3.36-1.28-5.58,0.78-5.38,4.57c0.2,3.79,2.72,7.66,6.08,8.94c3.23,1.23,5.44-0.83,5.24-4.62
		C68.63,154.91,66.1,151.04,62.87,149.8z M186.89,157.97l-69.01,39.35c-2.55,1.45-5.72-0.39-5.72-3.32v-78.62
		c0-1.37,0.74-2.64,1.93-3.32L183.1,72.7c2.55-1.45,5.72,0.39,5.72,3.32v78.62C188.82,156.02,188.08,157.29,186.89,157.97z
		 M98.12,197.4l-69.01-39.35c-1.19-0.68-1.93-1.95-1.93-3.32v-78.8c0-2.94,3.17-4.78,5.72-3.32l69.01,39.35
		c1.19,0.68,1.93,1.95,1.93,3.32v78.8C103.84,197.02,100.67,198.86,98.12,197.4z M36.23,58.47l69.96-39.88
		c1.17-0.67,2.62-0.67,3.79,0l69.96,39.88c2.58,1.47,2.58,5.18,0,6.65l-69.96,39.89c-1.18,0.67-2.62,0.67-3.79,0L36.23,65.12
		C33.65,63.65,33.65,59.94,36.23,58.47z M119.2,77.58c3.15,1.68,7.81,1.23,10.92-1.23c2.94-2.32,2.72-5.3-0.3-6.96
		c-3.03-1.68-7.65-1.32-10.7,0.98C115.87,72.8,116.04,75.89,119.2,77.58z M100.76,62.13l-3.06,2.13l12.34,6.22l7.89-5.81l-4.99-3.06
		c8.34-5.99,9.9-12.65,0.97-17.73c-9.1-5.18-20.71-4.18-30.15,1.77c-10.61,6.69-10.16,14.39-0.92,19.11l9.39-6.34
		c-4.27-2.32-4.29-5.37-0.03-8.15c4.02-2.64,8.95-2.82,12.96-0.59C111.39,53.1,107.65,57.31,100.76,62.13z M59.25,119.81
		c-0.24-4.86,1.98-6.84,5.99-5.3c3.89,1.47,6.42,5.36,6.66,10.14c0.45,7.44-4.61,7.04-11.45,4.42l-2.97-1.13l1.06,14.14l8.1,3.1
		l-0.07-6.24c8.77,3.34,14.87,0.33,14.31-10.78c-0.58-11.13-7.17-19.87-16.13-23.28c-9.62-3.68-14.84,1.6-14.19,11.62L59.25,119.81z
		 M62.87,149.8c-3.36-1.28-5.58,0.78-5.38,4.57c0.2,3.79,2.72,7.66,6.08,8.94c3.23,1.23,5.44-0.83,5.24-4.62
		C68.63,154.91,66.1,151.04,62.87,149.8z"/>
	<g>
		<path class="st0" d="M112.94,61.61l4.99,3.06l-7.89,5.81L97.7,64.26l3.06-2.13c6.89-4.82,10.62-9.03,4.39-12.43
			c-4.01-2.24-8.94-2.05-12.96,0.59c-4.25,2.78-4.24,5.83,0.03,8.15l-9.39,6.34c-9.24-4.72-9.69-12.42,0.92-19.11
			c9.44-5.96,21.05-6.96,30.15-1.77C122.84,48.96,121.28,55.62,112.94,61.61z"/>
	</g>
	<g>
		<path class="st0" d="M130.12,76.35c-3.11,2.47-7.78,2.91-10.92,1.23c-3.16-1.69-3.33-4.78-0.08-7.21c3.05-2.3,7.67-2.66,10.7-0.98
			C132.84,71.05,133.06,74.03,130.12,76.35z"/>
	</g>
	<g>
		<path class="st0" d="M152.31,138.56l0.07,6.37l-7.58,3.36l-0.98-13.69l2.76-1.23c6.41-2.85,11.13-6.52,10.71-13.81
			c-0.23-4.72-2.59-6.66-6.22-5.05c-3.76,1.66-5.84,5.5-5.6,10.29l-8.13,3.62c-0.6-9.79,4.27-19.44,13.26-23.42
			c8.38-3.72,14.54-0.06,15.07,10.92C166.22,126.9,160.5,134.92,152.31,138.56z"/>
	</g>
	<g>
		<path class="st0" d="M154.42,157.07c0.18,3.74-1.89,7.65-4.91,9c-3.15,1.39-5.51-0.55-5.69-4.3c-0.18-3.74,1.89-7.65,5.03-9.04
			C151.87,151.38,154.23,153.33,154.42,157.07z"/>
	</g>
	<g>
		<path class="st0" d="M66.57,138.94l0.07,6.24l-8.1-3.1l-1.06-14.14l2.97,1.13c6.84,2.62,11.9,3.02,11.45-4.42
			c-0.24-4.78-2.76-8.66-6.66-10.14c-4.01-1.54-6.23,0.44-5.99,5.3l-8.7-3.32c-0.65-10.02,4.57-15.3,14.19-11.62
			c8.96,3.41,15.55,12.15,16.13,23.28C81.44,139.27,75.34,142.28,66.57,138.94z"/>
	</g>
	<g>
		<path class="st0" d="M63.58,163.32c-3.36-1.28-5.89-5.15-6.08-8.94c-0.2-3.79,2.02-5.85,5.38-4.57c3.23,1.23,5.76,5.1,5.94,8.89
			C69.01,162.49,66.8,164.55,63.58,163.32z"/>
	</g>
</g>
<path class="st2" d="M174.73,0H41.27C18.51,0,0,18.51,0,41.27v133.47C0,197.49,18.51,216,41.27,216h133.47
	c22.75,0,41.27-18.51,41.27-41.27V41.27C216,18.51,197.49,0,174.73,0z M41.27,212.08c-20.59,0-37.35-16.75-37.35-37.35V41.27
	c0-20.59,16.75-37.35,37.35-37.35h133.47c20.59,0,37.35,16.75,37.35,37.35v133.47c0,20.59-16.75,37.35-37.35,37.35H41.27z
	 M178.75,2.12c-1.32-0.13-2.66-0.2-4.02-0.2C176.09,1.92,177.43,1.99,178.75,2.12z"/>
</svg>
