<?xml version="1.0" encoding="utf-8"?>
<!-- Generator: Adobe Illustrator 26.3.1, SVG Export Plug-In . SVG Version: 6.00 Build 0)  -->
<svg version="1.1" id="Layer_1" xmlns="http://www.w3.org/2000/svg" xmlns:xlink="http://www.w3.org/1999/xlink" x="0px" y="0px"
	 viewBox="0 0 216 216" style="enable-background:new 0 0 216 216;" xml:space="preserve">
<style type="text/css">
	.st0{fill:#7A16B5;}
	.st1{fill:#8DC540;}
	.st2{fill:#6D6E70;}
	.st3{fill:#D1D2D3;}
	.st4{fill:#FFFFFF;}
	.st5{fill:#94489A;}
	.st6{fill:#8DC63F;}
	.st7{fill:#B700D9;}
</style>
<g>
	<g>
		<g>
			<g>
				<path class="st6" d="M51.72,175.02c0,0-7.09,8.15-16.65,6.73c-9.57-1.42-18.43-9.21-23.74-19.13c0,0,11.34-4.96,18.07-3.19
					C36.13,161.2,49.24,169.35,51.72,175.02z"/>
			</g>
		</g>
		<g>
			<g>
				<path class="st6" d="M54.55,132.85c0,0,5.67,10.98,2.83,21.61s-10.54,14.83-10.54,14.83s-10.31-11.63-5.59-23.57
					C44.13,138.45,54.55,132.85,54.55,132.85z"/>
			</g>
		</g>
		<g>
			<g>
				<path class="st6" d="M34.71,151.07c0,0-3.03-10.47-15.79-16.49c-9.21-3.9-17.17,0.04-17.17,0.04s4.25,18.78,20.2,20.91
					C33.65,155.95,34.71,151.07,34.71,151.07z"/>
			</g>
		</g>
		<g>
			<g>
				<path class="st6" d="M45.7,114.42c0,0,3.19,15.24-2.83,22.68c-6.02,7.44-11.34,8.9-11.34,8.9s-5.37-12.46-0.41-20.96
					S45.7,114.42,45.7,114.42z"/>
			</g>
		</g>
		<g>
			<g>
				<path class="st6" d="M25.26,127.35c0,0-1.13-10.77-10.45-18.44c-5.26-4.32-13.05-4.05-13.05-4.05s-1.88,14.07,7.44,21.26
					C16.98,132.12,25.26,127.35,25.26,127.35z"/>
			</g>
		</g>
		<g>
			<g>
				<path class="st6" d="M42.32,94.23c0,0,0.71,12.76-6.73,18.43c-7.44,5.67-12.53,5.55-12.53,5.55s-2.77-12.64,6.83-20.08
					C35.59,94.23,42.32,94.23,42.32,94.23z"/>
			</g>
		</g>
		<g>
			<g>
				<path class="st6" d="M21.39,90.68c0,0-2.67-10.26,7.61-15.59c6.69-3.47,12.45,0,12.45,0s-1.65,10.58-8.14,14.01
					C26.83,92.52,21.39,90.68,21.39,90.68z"/>
			</g>
		</g>
		<g>
			<g>
				<path class="st6" d="M4.49,75.09c0,0-2.75,10.93,2.23,19.84c4.12,7.38,14.24,4.96,14.24,4.96s0.81-9.91-5.68-17.53
					C11.31,77.7,4.49,75.09,4.49,75.09z"/>
			</g>
		</g>
		<g>
			<g>
				<path class="st6" d="M30.77,47.1c0,0,1.44,9.66,0.31,15.95c-1.8,9.99-9.72,13.46-9.72,13.46s-6.66-6.49-3.57-17.01
					C19.8,52.66,24.79,50.29,30.77,47.1z"/>
			</g>
		</g>
		<g>
			<g>
				<path class="st6" d="M66.6,188.39c-0.1,0-0.21-0.03-0.3-0.08c-0.14-0.08-13.9-7.99-26.25-26.37
					c-7.25-10.78-12.61-23.01-15.94-36.35c-4.16-16.66-5.14-35.1-2.91-54.81c0.04-0.34,0.34-0.58,0.68-0.54
					c0.34,0.04,0.58,0.34,0.54,0.68c-2.21,19.55-1.24,37.83,2.87,54.33c3.29,13.19,8.58,25.29,15.74,35.95
					c12.19,18.16,25.74,25.97,25.87,26.04c0.3,0.17,0.4,0.54,0.23,0.84C67.02,188.28,66.82,188.39,66.6,188.39z"/>
			</g>
		</g>
	</g>
	<g>
		<g>
			<g>
				<path class="st6" d="M164.28,174.27c0,0,7.09,8.15,16.65,6.73c9.57-1.42,18.43-9.21,23.74-19.13c0,0-11.34-4.96-18.07-3.19
					C179.87,160.45,166.76,168.6,164.28,174.27z"/>
			</g>
		</g>
		<g>
			<g>
				<path class="st6" d="M161.45,132.11c0,0-5.67,10.98-2.83,21.61c2.83,10.63,10.54,14.83,10.54,14.83s10.31-11.63,5.59-23.57
					C171.87,137.71,161.45,132.11,161.45,132.11z"/>
			</g>
		</g>
		<g>
			<g>
				<path class="st6" d="M181.29,150.33c0,0,3.03-10.47,15.79-16.49c9.21-3.9,17.17,0.04,17.17,0.04s-4.25,18.78-20.2,20.91
					C182.35,155.21,181.29,150.33,181.29,150.33z"/>
			</g>
		</g>
		<g>
			<g>
				<path class="st6" d="M170.3,113.68c0,0-3.19,15.24,2.83,22.68c6.02,7.44,11.34,8.9,11.34,8.9s5.37-12.46,0.41-20.96
					C179.93,115.79,170.3,113.68,170.3,113.68z"/>
			</g>
		</g>
		<g>
			<g>
				<path class="st6" d="M190.74,126.61c0,0,1.13-10.77,10.45-18.44c5.26-4.32,13.05-4.05,13.05-4.05s1.88,14.07-7.44,21.26
					C199.02,131.37,190.74,126.61,190.74,126.61z"/>
			</g>
		</g>
		<g>
			<g>
				<path class="st6" d="M173.68,93.49c0,0-0.71,12.76,6.73,18.43s12.53,5.55,12.53,5.55s2.77-12.64-6.83-20.08
					C180.41,93.49,173.68,93.49,173.68,93.49z"/>
			</g>
		</g>
		<g>
			<g>
				<path class="st6" d="M194.61,89.93c0,0,2.67-10.26-7.61-15.59c-6.69-3.47-12.45,0-12.45,0s1.65,10.58,8.14,14.01
					S194.61,89.93,194.61,89.93z"/>
			</g>
		</g>
		<g>
			<g>
				<path class="st6" d="M211.51,74.35c0,0,2.75,10.93-2.23,19.84c-4.12,7.38-14.24,4.96-14.24,4.96s-0.81-9.91,5.68-17.53
					C204.69,76.95,211.51,74.35,211.51,74.35z"/>
			</g>
		</g>
		<g>
			<g>
				<path class="st6" d="M185.23,46.35c0,0-1.44,9.66-0.31,15.95c1.8,9.99,9.72,13.46,9.72,13.46s6.66-6.49,3.57-17.01
					C196.2,51.92,191.21,49.54,185.23,46.35z"/>
			</g>
		</g>
		<g>
			<g>
				<path class="st6" d="M149.4,187.64c0.1,0,0.21-0.03,0.3-0.08c0.14-0.08,13.9-7.99,26.25-26.37
					c7.25-10.78,12.61-23.01,15.94-36.35c4.16-16.66,5.14-35.1,2.91-54.81c-0.04-0.34-0.34-0.58-0.68-0.54
					c-0.34,0.04-0.58,0.34-0.54,0.68c2.21,19.55,1.24,37.83-2.87,54.33c-3.29,13.19-8.58,25.29-15.74,35.95
					c-12.19,18.16-25.74,25.97-25.87,26.04c-0.3,0.17-0.4,0.54-0.23,0.84C148.98,187.53,149.18,187.64,149.4,187.64z"/>
			</g>
		</g>
	</g>
	<g>
		<path class="st2" d="M133.9,153.75H82.39c-2.9,0-5.24-2.35-5.24-5.24v0c0-2.9,2.35-5.24,5.24-5.24h51.51
			c2.9,0,5.24,2.35,5.24,5.24v0C139.15,151.4,136.8,153.75,133.9,153.75z"/>
	</g>
	<g>
		<path class="st2" d="M83.49,178.58h49.3c3.51,0,6.35,2.84,6.35,6.35v3.67h-62v-3.67C77.14,181.43,79.99,178.58,83.49,178.58z"/>
	</g>
	<g>
		<path class="st0" d="M82.39,153.75h51.51c2.9,0,5.24-2.35,5.24-5.24v0c0-2.9-2.35-5.24-5.24-5.24H82.39
			c-2.9,0-5.24,2.35-5.24,5.24v0C77.14,151.4,79.49,153.75,82.39,153.75z"/>
	</g>
	<g>
		
			<rect x="82.2" y="155.55" transform="matrix(-1 -4.494550e-11 4.494550e-11 -1 216.2903 332.3293)" class="st6" width="51.88" height="21.22"/>
	</g>
	<g>
		<path class="st0" d="M132.8,178.58h-49.3c-3.51,0-6.35,2.84-6.35,6.35v3.67h62v-3.67C139.15,181.43,136.3,178.58,132.8,178.58z"/>
	</g>
	<path class="st0" d="M161.33,34.67c-0.02-1.23-1.03-2.22-2.26-2.22h-11.46c0.16-3.16,0.17-5.04,0.17-5.04H68.51
		c0,0,0,1.88,0.17,5.04h-10.5c-1.23,0-2.24,0.99-2.26,2.22c-0.01,0.52-0.16,12.79,3.16,25.43c4.27,16.26,12.4,25.62,23.6,27.25
		c0.73,1.15,1.49,2.26,2.3,3.33c2.26,3.56,7.06,7.42,7.06,7.42s-0.85,4.11,0.95,6.92c1.8,2.81,5.53,2.54,5.53,2.54h0.17v17.17
		c-1.15,0.05-3.53,0.39-4.86,2.17c-1.8,2.42-1.71,5.96-1.71,5.96c-0.99,0.01-3.7,0.23-5.15,2.19c-1.8,2.42-1.71,5.95-1.71,5.95
		h45.77c0,0,0.09-3.53-1.71-5.95c-1.45-1.95-4.17-2.18-5.15-2.19c0-0.14,0.06-3.58-1.71-5.95c-1.17-1.57-3.14-2.01-4.39-2.14v-17.19
		c0.92,0,3.73-0.21,5.22-2.54c1.8-2.81,0.95-6.92,0.95-6.92s4.79-3.86,7.06-7.42c0.78-1.02,1.51-2.09,2.22-3.2
		c11.75-1.18,20.25-10.61,24.65-27.38C161.5,47.45,161.34,35.19,161.33,34.67z M60.48,36.97h8.5c0.87,11.22,3.4,30.18,10.69,44.97
		C62.79,75.66,60.72,45.46,60.48,36.97z M92.49,132.85c0,0-0.01,0-0.04,0h0.32L92.49,132.85z M123.91,132.85c-0.07,0-0.11,0-0.11,0
		l-0.28,0H123.91z M118.27,126.47c0,0,3.2,0.65,4.03,3.91H93.99c0.83-3.26,4.03-3.91,4.03-3.91H118.27z M118.27,105.9H98.02
		c0,0-3.2-0.65-4.03-3.91h28.31C121.47,105.25,118.27,105.9,118.27,105.9z M136.43,82.32c7.45-14.85,10.01-34.04,10.89-45.36h9.47
		C156.54,45.66,154.39,77.03,136.43,82.32z"/>
</g>
</svg>
