<?xml version="1.0" encoding="UTF-8"?><svg id="Layer_1" xmlns="http://www.w3.org/2000/svg" viewBox="0 0 416.66 143.58"><defs><style>.cls-1{fill:#fff;}.cls-2{fill:#8dc63f;}</style></defs><rect class="cls-2" width="416.66" height="143.58" rx="42.1" ry="42.1"/><g><path class="cls-1" d="M80.24,106.7c-3.92-1.67-7.02-4.08-9.29-7.23-2.28-3.15-3.45-6.86-3.52-11.15h15.07c.2,2.88,1.22,5.16,3.06,6.83,1.84,1.67,4.37,2.51,7.58,2.51s5.86-.79,7.74-2.36c1.88-1.57,2.81-3.63,2.81-6.18,0-2.08-.64-3.78-1.91-5.12-1.27-1.34-2.86-2.39-4.77-3.16-1.91-.77-4.54-1.62-7.89-2.56-4.55-1.34-8.25-2.66-11.1-3.97-2.85-1.31-5.29-3.28-7.33-5.93-2.04-2.65-3.06-6.18-3.06-10.6,0-4.15,1.04-7.77,3.11-10.85,2.08-3.08,4.99-5.44,8.74-7.08,3.75-1.64,8.04-2.46,12.86-2.46,7.23,0,13.11,1.76,17.63,5.27,4.52,3.52,7.02,8.42,7.48,14.72h-15.47c-.13-2.41-1.16-4.4-3.06-5.98-1.91-1.57-4.44-2.36-7.58-2.36-2.75,0-4.94,.7-6.58,2.11-1.64,1.41-2.46,3.45-2.46,6.13,0,1.88,.62,3.43,1.86,4.67,1.24,1.24,2.78,2.24,4.62,3.01,1.84,.77,4.44,1.66,7.79,2.66,4.55,1.34,8.27,2.68,11.15,4.02,2.88,1.34,5.36,3.35,7.43,6.03,2.08,2.68,3.11,6.2,3.11,10.55,0,3.75-.97,7.23-2.91,10.45-1.94,3.21-4.79,5.78-8.54,7.69-3.75,1.91-8.21,2.86-13.36,2.86-4.89,0-9.29-.84-13.21-2.51Z"/><path class="cls-1" d="M171.01,54.81c3.28,1.84,5.84,4.56,7.69,8.14,1.84,3.58,2.76,7.89,2.76,12.91v32.65h-14.06v-30.74c0-4.42-1.11-7.82-3.32-10.2-2.21-2.38-5.22-3.57-9.04-3.57s-6.95,1.19-9.19,3.57c-2.24,2.38-3.37,5.78-3.37,10.2v30.74h-14.06V34.17h14.06v25.62c1.81-2.41,4.22-4.3,7.23-5.68,3.01-1.37,6.36-2.06,10.05-2.06,4.22,0,7.97,.92,11.25,2.76Z"/><path class="cls-1" d="M192.56,65.51c2.24-4.35,5.29-7.7,9.14-10.05,3.85-2.34,8.15-3.52,12.91-3.52,4.15,0,7.79,.84,10.9,2.51,3.11,1.67,5.61,3.78,7.48,6.33v-7.94h14.17v55.66h-14.17v-8.14c-1.81,2.61-4.3,4.77-7.48,6.48-3.18,1.71-6.85,2.56-11,2.56-4.69,0-8.96-1.21-12.81-3.62-3.85-2.41-6.9-5.81-9.14-10.2-2.25-4.39-3.37-9.43-3.37-15.12s1.12-10.61,3.37-14.97Zm38.43,6.38c-1.34-2.44-3.15-4.32-5.42-5.63-2.28-1.31-4.72-1.96-7.33-1.96s-5.02,.64-7.23,1.91c-2.21,1.27-4,3.13-5.38,5.58-1.37,2.45-2.06,5.34-2.06,8.69s.69,6.28,2.06,8.79c1.37,2.51,3.18,4.44,5.42,5.78,2.24,1.34,4.64,2.01,7.18,2.01s5.06-.65,7.33-1.96c2.28-1.31,4.08-3.18,5.42-5.63,1.34-2.44,2.01-5.37,2.01-8.79s-.67-6.34-2.01-8.79Z"/><path class="cls-1" d="M280.06,54.56c2.91-1.67,6.24-2.51,10-2.51v14.77h-3.72c-4.42,0-7.75,1.04-10,3.11-2.25,2.08-3.37,5.69-3.37,10.85v27.73h-14.07V52.86h14.07v8.64c1.81-2.95,4.17-5.26,7.08-6.93Z"/><path class="cls-1" d="M348.82,84.9h-40.69c.33,4.02,1.74,7.17,4.22,9.44,2.48,2.28,5.53,3.42,9.14,3.42,5.22,0,8.94-2.24,11.15-6.73h15.17c-1.61,5.36-4.69,9.76-9.24,13.21-4.56,3.45-10.15,5.17-16.78,5.17-5.36,0-10.16-1.19-14.42-3.57-4.25-2.38-7.57-5.74-9.95-10.1-2.38-4.35-3.57-9.38-3.57-15.07s1.17-10.81,3.52-15.17c2.34-4.35,5.63-7.7,9.85-10.05,4.22-2.34,9.07-3.52,14.57-3.52s10.03,1.14,14.22,3.42c4.18,2.28,7.43,5.51,9.74,9.69,2.31,4.19,3.47,8.99,3.47,14.42,0,2.01-.14,3.82-.4,5.43Zm-14.17-9.44c-.07-3.62-1.37-6.51-3.92-8.69-2.55-2.18-5.66-3.27-9.34-3.27-3.48,0-6.41,1.05-8.79,3.16-2.38,2.11-3.83,5.04-4.37,8.79h26.42Z"/></g></svg>