<?xml version="1.0" encoding="utf-8"?>
<!-- Generator: Adobe Illustrator 26.3.1, SVG Export Plug-In . SVG Version: 6.00 Build 0)  -->
<svg version="1.1" id="Layer_1" xmlns="http://www.w3.org/2000/svg" xmlns:xlink="http://www.w3.org/1999/xlink" x="0px" y="0px"
	 viewBox="0 0 216 216" style="enable-background:new 0 0 216 216;" xml:space="preserve">
<style type="text/css">
	.st0{fill:#7A16B5;}
	.st1{fill:#8DC540;}
	.st2{fill:#6D6E70;}
	.st3{fill:#D1D2D3;}
	.st4{fill:#FFFFFF;}
	.st5{fill:#94489A;}
	.st6{fill:#8DC63F;}
	.st7{fill:#B700D9;}
</style>
<path class="st2" d="M174.73,0H41.27C18.51,0,0,18.51,0,41.27v133.47C0,197.49,18.51,216,41.27,216h133.47
	c22.75,0,41.27-18.51,41.27-41.27V41.27C216,18.51,197.49,0,174.73,0z M41.27,212.08c-20.59,0-37.35-16.75-37.35-37.35V41.27
	c0-20.59,16.75-37.35,37.35-37.35h133.47c20.59,0,37.35,16.75,37.35,37.35v133.47c0,20.59-16.75,37.35-37.35,37.35H41.27z
	 M178.75,2.12c-1.32-0.13-2.66-0.2-4.02-0.2C176.09,1.92,177.43,1.99,178.75,2.12z"/>
<g>
	<path class="st0" d="M94.91,89.08l3.72,3.44l-11.46,10.72l-2.94-2.75C77.1,93.84,67.82,90.17,58.1,90.17H30
		c-4.3,0-7.82-3.48-7.82-7.78c0-4.33,3.52-7.82,7.82-7.82h28.1C71.8,74.57,84.88,79.72,94.91,89.08z"/>
	<path class="st0" d="M193.06,138.93l-18.27,18.27c-1.59,1.63-4.3,0.46-4.3-1.78V145.4h-15.71c-14.51,0-28.37-5.46-38.94-15.37
		l-7.04-6.58l11.46-10.68l6.23,5.84c7.7,7.2,17.73,11.19,28.29,11.19h15.71v-10.91c0-2.24,2.71-3.37,4.3-1.78l18.27,18.27
		C194.07,136.38,194.07,137.96,193.06,138.93z"/>
	<path class="st1" d="M193.08,77.06L174.8,58.79c-1.59-1.59-4.31-0.46-4.31,1.79V70.6h-15.72c-14.51,0-28.34,5.46-38.94,15.37
		L84.24,115.5c-7.12,6.66-16.41,10.33-26.16,10.33H30c-4.31,0-7.81,3.5-7.81,7.81c0,4.31,3.5,7.81,7.81,7.81h28.08
		c13.72,0,26.8-5.16,36.83-14.54l31.58-29.53c7.7-7.2,17.74-11.16,28.27-11.16h15.72v10.9c0,2.25,2.72,3.38,4.31,1.79l18.27-18.27
		C194.06,79.64,194.06,78.04,193.08,77.06z"/>
</g>
</svg>
