<?xml version="1.0" encoding="utf-8"?>
<!-- Generator: Adobe Illustrator 26.3.1, SVG Export Plug-In . SVG Version: 6.00 Build 0)  -->
<svg version="1.1" id="Layer_1" xmlns="http://www.w3.org/2000/svg" xmlns:xlink="http://www.w3.org/1999/xlink" x="0px" y="0px"
	 viewBox="0 0 216 216" style="enable-background:new 0 0 216 216;" xml:space="preserve">
<style type="text/css">
	.st0{fill:#7A16B5;}
	.st1{fill:#8DC540;}
	.st2{fill:#6D6E70;}
	.st3{fill:#D1D2D3;}
	.st4{fill:#FFFFFF;}
	.st5{fill:#94489A;}
	.st6{fill:#8DC63F;}
	.st7{fill:#B700D9;}
</style>
<path class="st2" d="M174.73,0H41.27C18.51,0,0,18.51,0,41.27v133.47C0,197.49,18.51,216,41.27,216h133.47
	c22.75,0,41.27-18.51,41.27-41.27V41.27C216,18.51,197.49,0,174.73,0z M41.27,212.08c-20.59,0-37.35-16.75-37.35-37.35V41.27
	c0-20.59,16.75-37.35,37.35-37.35h133.47c20.59,0,37.35,16.75,37.35,37.35v133.47c0,20.59-16.75,37.35-37.35,37.35H41.27z
	 M178.75,2.12c-1.32-0.13-2.66-0.2-4.02-0.2C176.09,1.92,177.43,1.99,178.75,2.12z"/>
<g>
	<path class="st1" d="M41.41,158.4l44.95-44.95c3.01-3.01,3.01-7.89,0-10.89L41.41,57.6c-4.85-4.85-13.15-1.42-13.15,5.45v89.9
		C28.26,159.81,36.56,163.25,41.41,158.4z"/>
	<path class="st1" d="M110.53,158.4l44.95-44.95c3.01-3.01,3.01-7.89,0-10.89L110.53,57.6c-4.85-4.85-13.15-1.42-13.15,5.45v89.9
		C97.38,159.81,105.68,163.25,110.53,158.4z"/>
	<path class="st1" d="M186.28,162.56h-16.2c-0.8,0-1.46-0.65-1.46-1.46V54.89c0-0.8,0.65-1.46,1.46-1.46h16.2
		c0.8,0,1.46,0.65,1.46,1.46v106.22C187.74,161.91,187.09,162.56,186.28,162.56z"/>
</g>
</svg>
