<?xml version="1.0" encoding="utf-8"?>
<!-- Generator: Adobe Illustrator 26.3.1, SVG Export Plug-In . SVG Version: 6.00 Build 0)  -->
<svg version="1.1" id="Layer_1" xmlns="http://www.w3.org/2000/svg" xmlns:xlink="http://www.w3.org/1999/xlink" x="0px" y="0px"
	 viewBox="0 0 414.22 177.53" style="enable-background:new 0 0 414.22 177.53;" xml:space="preserve">
<style type="text/css">
	.st0{fill:#7A16B5;}
</style>
<path class="st0" d="M213.27,33.9c5.71-0.3,9.4,2.77,9.4,8.77c0,9.45-11.98,22.98-17.33,23.27c-1.84,0.1-2.58-0.59-2.95-2.03
	c-0.92-2.86-0.74-9.41-5.16-9.18c-2.03,0.11-5.35,2.28-8.48,7.53c-6.08,9.95-12.9,29.03-12.9,34.84c0,2.73-0.55,4.39-3.5,4.55
	c-8.66,0.46-23.64-1.64-20.65-7.63c7.25-14.52,17.58-38.03,16.96-54.68c-0.07-1.81,1.66-3.18,5.16-3.36
	c16.41-0.87,16.22,10.77,16.96,10.73S200.73,34.56,213.27,33.9z"/>
<path class="st0" d="M280.73,95.93c-14.93,0.79-20.83-9.07-22.12-9.01C256.4,87.04,247,97.71,230.23,98.6
	c-9.4,0.5-15.3-5.37-15.3-15.54c0-23.62,24.33-50.53,54.38-52.12c15.85-0.84,27.28,7.64,27.28,11.82c0,3.45-14.38,20.38-14.38,42.73
	c0,5.45,1.29,5.93,1.29,8.11C283.5,94.87,282.57,95.83,280.73,95.93z M241.65,77.28c0,1.82,1.1,3.21,3.32,3.1
	c9.77-0.52,25.07-30.94,25.07-34.94c0-1.64-0.74-2.32-2.21-2.24C256.58,43.78,241.65,65.47,241.65,77.28z"/>
<path class="st0" d="M311.53,31.79c0.91-1.63,1.66-3.18,5.16-3.36c15.48-0.82,14.22,10.88,14.96,10.84
	c0.92-0.05,10.51-12.18,24.52-12.93c14.75-0.78,17.33,10.71,18.06,10.67c0.74-0.04,11.8-12.25,25.99-13
	c9.22-0.49,14.01,3.98,14.01,11.25c0,12.36-14.01,30.72-14.01,41.99c0,6,1.84,6.26,1.84,8.44c0,1.63-2.03,3.92-6.82,4.18
	c-11.43,0.6-20.65-0.54-20.65-9.63c0-9.81,11.8-28.79,11.8-36.06c0-1.64-0.92-2.68-2.95-2.57c-2.77,0.15-8.85,2.83-14.19,11.29
	c-6.45,10.15-13.09,26.86-13.09,34.67c0,2.73-0.55,4.39-3.5,4.55c-8.66,0.46-19.72-1.14-19.72-7.68c0-10.36,12.35-32.45,12.35-38.08
	c0-1.64-1.29-2.66-3.13-2.56c-2.77,0.15-5.71,1.57-11.06,10.03c-6.45,10.33-15.12,28.05-15.12,35.87c0,2.73-0.55,4.39-3.5,4.55
	c-8.66,0.46-22.11-1.58-22.11-8.12C290.36,73.05,303.64,45.83,311.53,31.79z"/>
<path class="st0" d="M347.37,104.35c-46.27,0-137.32,34.74-200.64,45.25c-0.46,0.07-0.97,0.15-1.52,0.25
	c-1.42,0.23-2.84,0.45-4.27,0.67c-14.53,1.75-17.13-4.56-17.6-6.88c-0.04-0.27-0.08-0.53-0.1-0.83c-0.32-3.43,2.54-13.16,4.23-17.41
	c0.05-0.13,0.21-0.63,0.28-0.8c2.06-5.28,4.24-8.97,5.82-12.73c1.8-3.9,2.67-6,5.03-10.55c7.37-14.28,21.83-38.88,20.5-52.27
	s-14.32-13.73-26.88-13.58c-23.8,0.28-49.77,20.7-51.8,46.94c-0.87,11.3,6.29,16.28,13.84,17.22c10.51,1.31,13.55-3.87,21.8-5.82
	c1.15-0.27-0.04,0.35,0.38,0.45c-6.48,13.6-16.43,35.13-15.44,53.56c0,0.03-0.01,0.05-0.01,0.08c-0.34,12.43,12.71,29.63,46.3,29.63
	c37.67,0,151.01-37.74,193.36-37.74c35.02,0,51.92,11.2,60.27,23.01c1.43,2.04,2.44,3.46,4.28,3.46c2.44,0,3.46-1.63,3.46-6.52
	C408.66,135.3,389.52,104.35,347.37,104.35z M109.97,82.43c-2.62,0.62-3.56-1.13-3.3-3.1c1.7-12.74,12.31-29.26,25.14-32
	c2.07-0.44,2.87-1.2,2.07,2.7C131.92,59.57,121.49,79.7,109.97,82.43z"/>
<g>
	<path class="st0" d="M50.01,25.76c0,15.62,24.59,26.99,24.59,49.42s-19.07,37.89-41.64,38.89C15.89,114.82,0,106.22,0,93.09
		s15.89-24.29,27.43-24.8c1.5-0.07,3.01,0.53,3.01,1.86c0,2.66-6.86,6.62-6.86,19.57c0,8.31,4.68,13.58,12.71,13.23
		c7.36-0.33,12.88-7.05,12.88-16.35c0-20.6-25.09-31.78-25.09-51.39c0-16.95,17.06-34.15,39.8-35.15
		c20.91-0.93,28.1,9.06,28.1,17.36c0,11.3-15.72,21.96-23.25,22.29c-1.67,0.07-2.68-1.04-2.68-2.54c0-2.49,3.68-7.14,3.68-18.27
		c0-5.48-2.84-7.52-7.19-7.32C55.53,11.89,50.01,16.95,50.01,25.76z"/>
</g>
</svg>
