<?xml version="1.0" encoding="utf-8"?>
<!-- Generator: Adobe Illustrator 26.3.1, SVG Export Plug-In . SVG Version: 6.00 Build 0)  -->
<svg version="1.1" id="Layer_1" xmlns="http://www.w3.org/2000/svg" xmlns:xlink="http://www.w3.org/1999/xlink" x="0px" y="0px"
	 viewBox="0 0 216 216" style="enable-background:new 0 0 216 216;" xml:space="preserve">
<style type="text/css">
	.st0{fill:#7A16B5;}
	.st1{fill:#8DC540;}
	.st2{fill:#6D6E70;}
	.st3{fill:#D1D2D3;}
	.st4{fill:#FFFFFF;}
	.st5{fill:#94489A;}
	.st6{fill:#8DC63F;}
	.st7{fill:#B700D9;}
</style>
<g>
	<g>
		<path class="st1" d="M63.58,116.21l-42.07,6.18c-1.72,0.25-3.31-0.94-3.56-2.65l-6.18-42.07c-0.25-1.72,0.94-3.31,2.65-3.56
			l42.07-6.18c1.72-0.25,3.31,0.94,3.56,2.65l6.18,42.07C66.49,114.36,65.3,115.96,63.58,116.21z"/>
	</g>
	<g>
		<path class="st3" d="M107.51,133.12H75.06c-1.73,0-3.14-1.41-3.14-3.14V97.53c0-1.73,1.41-3.14,3.14-3.14h32.45
			c1.73,0,3.14,1.41,3.14,3.14v32.45C110.66,131.72,109.25,133.12,107.51,133.12z"/>
	</g>
	<g>
		<path class="st3" d="M155.22,133.12h-32.45c-1.73,0-3.14-1.41-3.14-3.14V97.53c0-1.73,1.41-3.14,3.14-3.14h32.45
			c1.73,0,3.14,1.41,3.14,3.14v32.45C158.36,131.72,156.95,133.12,155.22,133.12z"/>
	</g>
	<g>
		<path class="st3" d="M202.92,133.12h-32.45c-1.73,0-3.14-1.41-3.14-3.14V97.53c0-1.73,1.41-3.14,3.14-3.14h32.45
			c1.73,0,3.14,1.41,3.14,3.14v32.45C206.06,131.72,204.65,133.12,202.92,133.12z"/>
	</g>
	<g>
		<path class="st4" d="M49.16,104.26l-16.14,2.37l-1.76,8.67l-5.1,0.75l7.97-38.76l5.57-0.82l18.73,34.83l-5.1,0.75L49.16,104.26z
			 M37.77,82.83l-3.94,19.67l13.38-1.97L37.77,82.83z"/>
	</g>
	<g>
		<path class="st5" d="M36.5,65.93c-0.24,0.24-0.56,0.41-0.93,0.47c-0.91,0.14-1.77-0.49-1.91-1.4l-2.31-15.09
			c-0.14-0.91,0.49-1.77,1.4-1.91c0.91-0.14,1.77,0.49,1.91,1.4l2.31,15.09C37.06,65.04,36.86,65.56,36.5,65.93z"/>
	</g>
	<g>
		<path class="st5" d="M43.19,66.17c-0.41,0.09-0.86,0.01-1.23-0.26c-0.68-0.5-0.82-1.45-0.32-2.12l5.99-8.15
			c0.5-0.68,1.45-0.82,2.12-0.32c0.68,0.5,0.82,1.45,0.32,2.12l-5.99,8.15C43.86,65.89,43.54,66.09,43.19,66.17z"/>
	</g>
	<g>
		<path class="st5" d="M29.06,66.69c-0.02,0.12-0.05,0.24-0.1,0.35c-0.33,0.77-1.23,1.12-2,0.79l-9.96-4.31
			c-0.77-0.33-1.12-1.23-0.79-2c0.33-0.77,1.23-1.12,2-0.79l9.96,4.31C28.81,65.33,29.17,66.02,29.06,66.69z"/>
	</g>
	<path class="st2" d="M174.73,0H41.27C18.51,0,0,18.51,0,41.27v133.47C0,197.49,18.51,216,41.27,216h133.47
		c22.75,0,41.27-18.51,41.27-41.27V41.27C216,18.51,197.49,0,174.73,0z M41.27,212.08c-20.59,0-37.35-16.75-37.35-37.35V41.27
		c0-20.59,16.75-37.35,37.35-37.35h133.47c20.59,0,37.35,16.75,37.35,37.35v133.47c0,20.59-16.75,37.35-37.35,37.35H41.27z
		 M178.75,2.12c-1.32-0.13-2.66-0.2-4.02-0.2C176.09,1.92,177.43,1.99,178.75,2.12z"/>
</g>
</svg>
