<?xml version="1.0" encoding="utf-8"?>
<!-- Generator: Adobe Illustrator 26.3.1, SVG Export Plug-In . SVG Version: 6.00 Build 0)  -->
<svg version="1.1" id="Layer_1" xmlns="http://www.w3.org/2000/svg" xmlns:xlink="http://www.w3.org/1999/xlink" x="0px" y="0px"
	 viewBox="0 0 216 216" style="enable-background:new 0 0 216 216;" xml:space="preserve">
<style type="text/css">
	.st0{fill:#7A16B5;}
	.st1{fill:#8DC540;}
	.st2{fill:#6D6E70;}
	.st3{fill:#D1D2D3;}
	.st4{fill:#FFFFFF;}
	.st5{fill:#94489A;}
	.st6{fill:#8DC63F;}
	.st7{fill:#B700D9;}
</style>
<g>
	<g>
		<path d="M182.23,42.7c-1.05-0.66-2.53-0.61-4.07,0.14l0,0c-21.1,10.26-42.7,3.88-63.59-2.29c-20.72-6.12-42.14-12.43-63.37-2.89
			c2.17-2.04,3.53-4.93,3.53-8.15c0-6.18-5.01-11.18-11.18-11.18c-6.18,0-11.18,5.01-11.18,11.18c0,4.47,2.62,8.32,6.41,10.12
			v155.94c0,3.43,2.78,6.21,6.21,6.21c3.43,0,6.21-2.78,6.21-6.21v-71.71c20.86-9.76,42.21-3.47,62.86,2.63
			c13.06,3.86,26.38,7.79,39.77,7.79c8.38,0,16.78-1.54,25.14-5.61c2.54-1.23,4.68-4.53,4.68-7.22V45.58
			C183.64,44.29,183.14,43.26,182.23,42.7z M73.72,112.31c-8.02,0.13-15.34,1.71-22.31,4.8V94.86c6.95-3.21,14.26-4.85,22.31-4.98
			V112.31z M73.72,61.6c-8.02,0.13-15.34,1.71-22.31,4.8V44.16c6.95-3.21,14.26-4.85,22.31-4.98V61.6z M100.17,91.9
			c-9.76-2.5-17.45-3.67-24.6-3.75V63.32c7.11,0.08,14.78,1.27,24.6,3.81V91.9z M126.61,123.55c-4.02-1.08-8.09-2.28-12.04-3.44
			c-4.12-1.22-8.37-2.47-12.57-3.59V94.17c4.02,1.08,8.09,2.27,12.04,3.44c4.12,1.22,8.37,2.47,12.57,3.58V123.55z M126.61,72.84
			c-4.02-1.08-8.09-2.27-12.04-3.44c-4.12-1.22-8.36-2.47-12.56-3.58V43.46c4.02,1.08,8.09,2.28,12.04,3.45
			c4.11,1.22,8.36,2.47,12.56,3.58V72.84z M153.06,103.7c-7.11-0.08-14.78-1.27-24.6-3.81V75.11c9.76,2.5,17.45,3.67,24.6,3.75
			V103.7z M177.2,122.85c-6.95,3.21-14.26,4.85-22.31,4.98v-22.42c8.02-0.13,15.34-1.71,22.31-4.8V122.85z M177.2,72.15
			c-6.95,3.21-14.26,4.85-22.31,4.98V54.71c8.02-0.13,15.34-1.71,22.31-4.8V72.15z"/>
	</g>
</g>
</svg>
